<mxfile host="app.diagrams.net" agent="Mozilla/5.0 (X11; Ubuntu; Linux x86_64; rv:129.0) Gecko/20100101 Firefox/129.0" version="24.7.10">
  <diagram id="C5RBs43oDa-KdzZeNtuy" name="Page-1">
    <mxGraphModel dx="1434" dy="726" grid="1" gridSize="10" guides="1" tooltips="1" connect="1" arrows="1" fold="1" page="1" pageScale="1" pageWidth="827" pageHeight="1169" math="0" shadow="0">
      <root>
        <mxCell id="WIyWlLk6GJQsqaUBKTNV-0" />
        <mxCell id="WIyWlLk6GJQsqaUBKTNV-1" parent="WIyWlLk6GJQsqaUBKTNV-0" />
        <mxCell id="XJzUeo_9UBLqJhdfNgJT-1" value="&lt;div&gt;iPhone&lt;/div&gt;&lt;div&gt;&lt;br&gt;&lt;/div&gt;" style="html=1;whiteSpace=wrap;" vertex="1" parent="WIyWlLk6GJQsqaUBKTNV-1">
          <mxGeometry x="394" y="140" width="110" height="50" as="geometry" />
        </mxCell>
        <mxCell id="XJzUeo_9UBLqJhdfNgJT-2" value="ReprodutorMusical" style="swimlane;fontStyle=1;align=center;verticalAlign=top;childLayout=stackLayout;horizontal=1;startSize=26;horizontalStack=0;resizeParent=1;resizeParentMax=0;resizeLast=0;collapsible=1;marginBottom=0;whiteSpace=wrap;html=1;" vertex="1" parent="WIyWlLk6GJQsqaUBKTNV-1">
          <mxGeometry x="90" y="350" width="240" height="130" as="geometry" />
        </mxCell>
        <mxCell id="XJzUeo_9UBLqJhdfNgJT-3" value="+ iPod: String" style="text;strokeColor=none;fillColor=none;align=left;verticalAlign=top;spacingLeft=4;spacingRight=4;overflow=hidden;rotatable=0;points=[[0,0.5],[1,0.5]];portConstraint=eastwest;whiteSpace=wrap;html=1;" vertex="1" parent="XJzUeo_9UBLqJhdfNgJT-2">
          <mxGeometry y="26" width="240" height="26" as="geometry" />
        </mxCell>
        <mxCell id="XJzUeo_9UBLqJhdfNgJT-4" value="" style="line;strokeWidth=1;fillColor=none;align=left;verticalAlign=middle;spacingTop=-1;spacingLeft=3;spacingRight=3;rotatable=0;labelPosition=right;points=[];portConstraint=eastwest;strokeColor=inherit;" vertex="1" parent="XJzUeo_9UBLqJhdfNgJT-2">
          <mxGeometry y="52" width="240" height="8" as="geometry" />
        </mxCell>
        <mxCell id="XJzUeo_9UBLqJhdfNgJT-5" value="&lt;div&gt;+ tocar(): String&lt;/div&gt;&lt;div&gt;+ pausar():String&lt;/div&gt;&lt;div&gt;+ selecionarMusica(String musica): String&lt;br&gt;&lt;/div&gt;" style="text;strokeColor=none;fillColor=none;align=left;verticalAlign=top;spacingLeft=4;spacingRight=4;overflow=hidden;rotatable=0;points=[[0,0.5],[1,0.5]];portConstraint=eastwest;whiteSpace=wrap;html=1;" vertex="1" parent="XJzUeo_9UBLqJhdfNgJT-2">
          <mxGeometry y="60" width="240" height="70" as="geometry" />
        </mxCell>
        <mxCell id="XJzUeo_9UBLqJhdfNgJT-7" value="AparelhoTelefonico" style="swimlane;fontStyle=1;align=center;verticalAlign=top;childLayout=stackLayout;horizontal=1;startSize=26;horizontalStack=0;resizeParent=1;resizeParentMax=0;resizeLast=0;collapsible=1;marginBottom=0;whiteSpace=wrap;html=1;" vertex="1" parent="WIyWlLk6GJQsqaUBKTNV-1">
          <mxGeometry x="359" y="350" width="180" height="130" as="geometry" />
        </mxCell>
        <mxCell id="XJzUeo_9UBLqJhdfNgJT-8" value="+ celular: String" style="text;strokeColor=none;fillColor=none;align=left;verticalAlign=top;spacingLeft=4;spacingRight=4;overflow=hidden;rotatable=0;points=[[0,0.5],[1,0.5]];portConstraint=eastwest;whiteSpace=wrap;html=1;" vertex="1" parent="XJzUeo_9UBLqJhdfNgJT-7">
          <mxGeometry y="26" width="180" height="26" as="geometry" />
        </mxCell>
        <mxCell id="XJzUeo_9UBLqJhdfNgJT-9" value="" style="line;strokeWidth=1;fillColor=none;align=left;verticalAlign=middle;spacingTop=-1;spacingLeft=3;spacingRight=3;rotatable=0;labelPosition=right;points=[];portConstraint=eastwest;strokeColor=inherit;" vertex="1" parent="XJzUeo_9UBLqJhdfNgJT-7">
          <mxGeometry y="52" width="180" height="8" as="geometry" />
        </mxCell>
        <mxCell id="XJzUeo_9UBLqJhdfNgJT-10" value="&lt;div&gt;+ ligar(String numero): String&lt;/div&gt;&lt;div&gt;+ atender (): String&lt;/div&gt;&lt;div&gt;+ iniciarCorreioDeVoz(): String&lt;br&gt; &lt;/div&gt;" style="text;strokeColor=none;fillColor=none;align=left;verticalAlign=top;spacingLeft=4;spacingRight=4;overflow=hidden;rotatable=0;points=[[0,0.5],[1,0.5]];portConstraint=eastwest;whiteSpace=wrap;html=1;" vertex="1" parent="XJzUeo_9UBLqJhdfNgJT-7">
          <mxGeometry y="60" width="180" height="70" as="geometry" />
        </mxCell>
        <mxCell id="XJzUeo_9UBLqJhdfNgJT-11" value="NavegadorInternet" style="swimlane;fontStyle=1;align=center;verticalAlign=top;childLayout=stackLayout;horizontal=1;startSize=26;horizontalStack=0;resizeParent=1;resizeParentMax=0;resizeLast=0;collapsible=1;marginBottom=0;whiteSpace=wrap;html=1;" vertex="1" parent="WIyWlLk6GJQsqaUBKTNV-1">
          <mxGeometry x="570" y="350" width="190" height="130" as="geometry" />
        </mxCell>
        <mxCell id="XJzUeo_9UBLqJhdfNgJT-12" value="+ Browser: String" style="text;strokeColor=none;fillColor=none;align=left;verticalAlign=top;spacingLeft=4;spacingRight=4;overflow=hidden;rotatable=0;points=[[0,0.5],[1,0.5]];portConstraint=eastwest;whiteSpace=wrap;html=1;" vertex="1" parent="XJzUeo_9UBLqJhdfNgJT-11">
          <mxGeometry y="26" width="190" height="26" as="geometry" />
        </mxCell>
        <mxCell id="XJzUeo_9UBLqJhdfNgJT-13" value="" style="line;strokeWidth=1;fillColor=none;align=left;verticalAlign=middle;spacingTop=-1;spacingLeft=3;spacingRight=3;rotatable=0;labelPosition=right;points=[];portConstraint=eastwest;strokeColor=inherit;" vertex="1" parent="XJzUeo_9UBLqJhdfNgJT-11">
          <mxGeometry y="52" width="190" height="8" as="geometry" />
        </mxCell>
        <mxCell id="XJzUeo_9UBLqJhdfNgJT-14" value="&lt;div&gt;+ exibirPagina(Sring url): String&lt;/div&gt;&lt;div&gt;+ adicionarNovaAba(): Sting&lt;/div&gt;&lt;div&gt;+ atualizarPagina: String&lt;/div&gt;" style="text;strokeColor=none;fillColor=none;align=left;verticalAlign=top;spacingLeft=4;spacingRight=4;overflow=hidden;rotatable=0;points=[[0,0.5],[1,0.5]];portConstraint=eastwest;whiteSpace=wrap;html=1;" vertex="1" parent="XJzUeo_9UBLqJhdfNgJT-11">
          <mxGeometry y="60" width="190" height="70" as="geometry" />
        </mxCell>
        <mxCell id="XJzUeo_9UBLqJhdfNgJT-16" value="&lt;div&gt;1..*&lt;/div&gt;" style="endArrow=open;html=1;endSize=12;startArrow=diamondThin;startSize=14;startFill=1;align=left;verticalAlign=bottom;rounded=0;exitX=0.118;exitY=1.06;exitDx=0;exitDy=0;entryX=0.575;entryY=-0.015;entryDx=0;entryDy=0;entryPerimeter=0;exitPerimeter=0;" edge="1" parent="WIyWlLk6GJQsqaUBKTNV-1" source="XJzUeo_9UBLqJhdfNgJT-1" target="XJzUeo_9UBLqJhdfNgJT-2">
          <mxGeometry x="-0.6614" y="-25" relative="1" as="geometry">
            <mxPoint x="273" y="310" as="sourcePoint" />
            <mxPoint x="413" y="190" as="targetPoint" />
            <mxPoint as="offset" />
          </mxGeometry>
        </mxCell>
        <mxCell id="XJzUeo_9UBLqJhdfNgJT-26" value="1..*" style="endArrow=open;html=1;endSize=12;startArrow=diamondThin;startSize=14;startFill=1;align=left;verticalAlign=bottom;rounded=0;exitX=0.5;exitY=1;exitDx=0;exitDy=0;" edge="1" parent="WIyWlLk6GJQsqaUBKTNV-1" source="XJzUeo_9UBLqJhdfNgJT-1" target="XJzUeo_9UBLqJhdfNgJT-7">
          <mxGeometry x="-0.625" y="11" relative="1" as="geometry">
            <mxPoint x="109.5" y="620" as="sourcePoint" />
            <mxPoint x="450" y="340" as="targetPoint" />
            <mxPoint as="offset" />
          </mxGeometry>
        </mxCell>
        <mxCell id="XJzUeo_9UBLqJhdfNgJT-29" value="&lt;div&gt;1..*&lt;/div&gt;" style="endArrow=open;html=1;endSize=12;startArrow=diamondThin;startSize=14;startFill=1;align=left;verticalAlign=bottom;rounded=0;exitX=0.827;exitY=1;exitDx=0;exitDy=0;exitPerimeter=0;entryX=0.468;entryY=-0.023;entryDx=0;entryDy=0;entryPerimeter=0;" edge="1" parent="WIyWlLk6GJQsqaUBKTNV-1" source="XJzUeo_9UBLqJhdfNgJT-1" target="XJzUeo_9UBLqJhdfNgJT-11">
          <mxGeometry x="-0.7781" y="23" relative="1" as="geometry">
            <mxPoint x="490" y="200" as="sourcePoint" />
            <mxPoint x="650" y="200" as="targetPoint" />
            <mxPoint as="offset" />
          </mxGeometry>
        </mxCell>
      </root>
    </mxGraphModel>
  </diagram>
</mxfile>
